<?xml version="1.0" encoding="UTF-8" standalone="no"?>
<svg
   xmlns:dc="http://purl.org/dc/elements/1.1/"
   xmlns:cc="http://creativecommons.org/ns#"
   xmlns:rdf="http://www.w3.org/1999/02/22-rdf-syntax-ns#"
   xmlns:svg="http://www.w3.org/2000/svg"
   xmlns="http://www.w3.org/2000/svg"
   viewBox="0 0 65.800003 56.693333"
   height="56.693333"
   width="65.800003"
   xml:space="preserve"
   id="svg2"
   version="1.1"><metadata
     id="metadata8"><rdf:RDF><cc:Work
         rdf:about=""><dc:format>image/svg+xml</dc:format><dc:type
           rdf:resource="http://purl.org/dc/dcmitype/StillImage" /></cc:Work></rdf:RDF></metadata><defs
     id="defs6" /><g
     transform="matrix(1.3333333,0,0,-1.3333333,0,56.693333)"
     id="g10"><g
       transform="scale(0.1)"
       id="g12"><path
         id="path14"
         style="fill:#231f20;fill-opacity:1;fill-rule:nonzero;stroke:none"
         d="m 29.9023,51.6328 c 0,-2.0234 -0.2968,-3.832 -0.8906,-5.4336 -0.5937,-1.5976 -1.4687,-2.9453 -2.625,-4.0508 -1.1562,-1.1054 -2.5859,-1.9453 -4.2851,-2.5234 -1.6993,-0.5781 -3.6524,-0.8672 -5.8594,-0.8672 -2.0742,0 -3.9375,0.2578 -5.5859,0.7774 -1.64849,0.5195 -3.03911,1.3046 -4.17974,2.3593 -1.13672,1.0547 -2.00781,2.3633 -2.60937,3.9375 -0.60547,1.5703 -0.90625,3.4102 -0.90625,5.5196 v 20.0586 c 0,0.1718 0.05078,0.3242 0.15234,0.4609 0.10156,0.1367 0.28516,0.2461 0.54688,0.3281 0.26562,0.086 0.60937,0.1563 1.03125,0.2071 0.42578,0.0507 0.97265,0.0742 1.63281,0.0742 0.64844,0 1.17969,-0.0235 1.60547,-0.0742 0.42578,-0.0508 0.76562,-0.1211 1.01953,-0.2071 0.25391,-0.082 0.4375,-0.1914 0.54687,-0.3281 0.11329,-0.1367 0.16797,-0.2891 0.16797,-0.4609 V 51.9375 c 0,-1.3086 0.16016,-2.4453 0.48434,-3.4023 0.3243,-0.961 0.7852,-1.7579 1.3868,-2.3829 0.6054,-0.6328 1.3281,-1.1015 2.1679,-1.4179 0.8399,-0.3164 1.7813,-0.4727 2.8203,-0.4727 1.0508,0 1.9961,0.1641 2.8243,0.4844 0.8359,0.3242 1.539,0.7969 2.1171,1.418 0.5782,0.6211 1.0274,1.3828 1.3399,2.2929 0.3125,0.9102 0.4726,1.9414 0.4726,3.0977 v 19.8555 c 0,0.1718 0.0469,0.3242 0.1524,0.4609 0.1016,0.1367 0.2812,0.2461 0.5351,0.3281 0.254,0.086 0.5977,0.1563 1.0313,0.2071 0.4336,0.0507 0.9727,0.0742 1.6172,0.0742 0.6484,0 1.1797,-0.0235 1.5937,-0.0742 0.418,-0.0508 0.7539,-0.1211 1.0078,-0.2071 0.2579,-0.082 0.4336,-0.1914 0.5352,-0.3281 0.1016,-0.1367 0.1523,-0.2891 0.1523,-0.4609 v -19.7774 0" /><path
         id="path16"
         style="fill:#231f20;fill-opacity:1;fill-rule:nonzero;stroke:none"
         d="m 63.793,41.6914 c 0,-0.3906 -0.0664,-0.7422 -0.1992,-1.0469 C 63.457,40.3398 63.2734,40.082 63.043,39.8789 62.8125,39.6758 62.543,39.5273 62.2266,39.4336 61.9141,39.3398 61.5938,39.293 61.2734,39.293 H 58.418 c -0.5977,0 -1.1094,0.0625 -1.543,0.1797 -0.4336,0.1171 -0.832,0.3359 -1.1992,0.6484 -0.3633,0.3125 -0.7149,0.7383 -1.0586,1.2773 -0.3399,0.5352 -0.7188,1.2227 -1.1484,2.0743 l -8.2071,15.4218 c -0.4765,0.918 -0.9609,1.9063 -1.4531,2.9727 -0.4883,1.0586 -0.9336,2.0937 -1.3242,3.0937 h -0.0508 c 0.0703,-1.2226 0.1172,-2.4414 0.1523,-3.6562 0.0352,-1.2149 0.0508,-2.4688 0.0508,-3.7617 V 40.2891 c 0,-0.1719 -0.0469,-0.3243 -0.1367,-0.461 -0.0977,-0.1367 -0.2578,-0.25 -0.4883,-0.3437 -0.2304,-0.0938 -0.539,-0.1641 -0.9297,-0.2149 -0.3906,-0.0507 -0.8906,-0.0781 -1.5039,-0.0781 -0.5937,0 -1.0859,0.0274 -1.4804,0.0781 -0.3868,0.0508 -0.6954,0.1211 -0.9141,0.2149 -0.2227,0.0937 -0.375,0.207 -0.4609,0.3437 -0.0821,0.1367 -0.125,0.2891 -0.125,0.461 v 29.6445 c 0,0.7969 0.2304,1.3984 0.6992,1.7969 0.4687,0.3984 1.0429,0.5976 1.7187,0.5976 h 3.5977 c 0.6445,0 1.1875,-0.0547 1.6289,-0.164 0.4453,-0.1133 0.8398,-0.293 1.1875,-0.5508 0.3476,-0.2539 0.6758,-0.6055 0.9805,-1.0547 0.3086,-0.4531 0.6211,-1.0078 0.9414,-1.6719 L 53.7773,56.832 c 0.375,-0.7343 0.7461,-1.4492 1.1094,-2.1562 0.3672,-0.7031 0.7188,-1.4063 1.0547,-2.1133 0.3438,-0.707 0.6719,-1.3984 0.9961,-2.0781 0.3242,-0.6797 0.6367,-1.3594 0.9453,-2.0391 h 0.0235 c -0.0508,1.1914 -0.0899,2.4297 -0.1133,3.7227 -0.0274,1.289 -0.0391,2.5234 -0.0391,3.6953 V 71.332 c 0,0.1719 0.0508,0.3282 0.1524,0.461 0.1015,0.1367 0.2695,0.2578 0.5117,0.3593 0.2343,0.1016 0.5508,0.1719 0.9414,0.2149 0.3906,0.043 0.8945,0.0625 1.5039,0.0625 0.5781,0 1.0625,-0.0195 1.4531,-0.0625 0.3906,-0.043 0.6914,-0.1133 0.9063,-0.2149 0.2109,-0.1015 0.3593,-0.2226 0.4453,-0.3593 0.0859,-0.1328 0.125,-0.2891 0.125,-0.461 v -29.6406 0" /><path
         id="path18"
         style="fill:#231f20;fill-opacity:1;fill-rule:nonzero;stroke:none"
         d="m 77.2422,40.2617 c 0,-0.1719 -0.0547,-0.3203 -0.168,-0.457 -0.1094,-0.1367 -0.2929,-0.2461 -0.5469,-0.332 -0.2539,-0.086 -0.5898,-0.1524 -1.0156,-0.2032 -0.4258,-0.0507 -0.9687,-0.0781 -1.6328,-0.0781 -0.6445,0 -1.1836,0.0274 -1.6211,0.0781 -0.4297,0.0508 -0.7734,0.1172 -1.0312,0.2032 -0.2539,0.0859 -0.4375,0.1953 -0.5469,0.332 -0.1094,0.1367 -0.168,0.2851 -0.168,0.457 v 31.1485 c 0,0.1718 0.0586,0.3242 0.168,0.4609 0.1094,0.1367 0.2969,0.2461 0.5625,0.3281 0.2617,0.086 0.6055,0.1563 1.0273,0.2071 0.4258,0.0507 0.9649,0.0742 1.6094,0.0742 0.6641,0 1.207,-0.0235 1.6328,-0.0742 0.4258,-0.0508 0.7617,-0.1211 1.0156,-0.2071 0.254,-0.082 0.4375,-0.1914 0.5469,-0.3281 0.1133,-0.1367 0.168,-0.2891 0.168,-0.4609 v -31.1485 0" /><path
         id="path20"
         style="fill:#231f20;fill-opacity:1;fill-rule:nonzero;stroke:none"
         d="m 113.633,56.2188 c 0,-2.7383 -0.34,-5.1836 -1.02,-7.3399 -0.679,-2.1601 -1.691,-3.9922 -3.031,-5.4922 -1.344,-1.5078 -3.008,-2.6523 -4.988,-3.4414 -1.977,-0.793 -4.266,-1.1875 -6.8674,-1.1875 -2.5664,0 -4.8047,0.336 -6.7188,1.0078 -1.9101,0.668 -3.5039,1.6953 -4.7773,3.0742 -1.2735,1.3711 -2.2305,3.125 -2.8672,5.2461 -0.6367,2.125 -0.957,4.6407 -0.957,7.5469 0,2.668 0.3398,5.0703 1.0195,7.1992 0.6797,2.1328 1.6914,3.9493 3.0351,5.4414 1.3399,1.4961 3.0039,2.6446 4.9844,3.4454 1.9766,0.7968 4.2774,1.1992 6.8945,1.1992 2.4962,0 4.6992,-0.336 6.6132,-0.9961 1.914,-0.6641 3.508,-1.6836 4.793,-3.0586 1.281,-1.375 2.25,-3.1172 2.906,-5.211 0.653,-2.1015 0.981,-4.5781 0.981,-7.4335 z m -7.035,-0.3555 c 0,1.7344 -0.137,3.3086 -0.407,4.7265 -0.273,1.4219 -0.738,2.6329 -1.39,3.6485 -0.656,1.0078 -1.528,1.789 -2.613,2.3437 -1.09,0.5547 -2.4497,0.8282 -4.0786,0.8282 -1.6485,0 -3.0274,-0.3086 -4.1289,-0.9336 -1.1055,-0.6172 -1.9961,-1.4453 -2.6797,-2.4844 -0.6758,-1.0352 -1.1602,-2.2461 -1.4375,-3.6289 -0.2813,-1.3867 -0.4219,-2.8516 -0.4219,-4.3985 0,-1.8007 0.1367,-3.4218 0.4063,-4.8593 0.2734,-1.4336 0.7343,-2.6602 1.3789,-3.6797 0.6445,-1.0195 1.5117,-1.7969 2.6015,-2.332 1.086,-0.5352 2.4532,-0.8047 4.1016,-0.8047 1.6484,0 3.0273,0.3086 4.1293,0.9179 1.105,0.6133 1.996,1.4453 2.679,2.5 0.676,1.0508 1.16,2.2813 1.438,3.6797 0.281,1.4063 0.422,2.8946 0.422,4.4766 z m -6.9105,25.3633 c 0.2227,0.2539 0.4415,0.457 0.6525,0.6093 0.211,0.1563 0.465,0.2735 0.765,0.3555 0.297,0.0859 0.657,0.1445 1.083,0.168 0.425,0.0234 0.949,0.039 1.582,0.039 0.781,0 1.386,-0.0507 1.82,-0.1523 0.433,-0.1055 0.73,-0.2344 0.894,-0.3984 0.161,-0.1602 0.2,-0.3438 0.114,-0.5469 -0.086,-0.2031 -0.246,-0.4141 -0.485,-0.6367 l -5.66,-5.0977 c -0.168,-0.1523 -0.344,-0.2851 -0.5194,-0.3945 -0.1797,-0.1094 -0.3984,-0.2071 -0.6523,-0.2813 -0.254,-0.0742 -0.5586,-0.1328 -0.918,-0.164 -0.3555,-0.0352 -0.8008,-0.0508 -1.3281,-0.0508 -0.5743,0 -1.0391,0.0234 -1.3868,0.0781 -0.3476,0.0469 -0.5937,0.1289 -0.7382,0.2383 -0.1446,0.1133 -0.1993,0.25 -0.1641,0.4219 0.0312,0.1718 0.1523,0.3711 0.3555,0.6093 l 4.5859,5.2032 v 0" /><path
         id="path22"
         style="fill:#231f20;fill-opacity:1;fill-rule:nonzero;stroke:none"
         d="m 145.941,41.6914 c 0,-0.3906 -0.066,-0.7422 -0.203,-1.0469 -0.133,-0.3047 -0.316,-0.5625 -0.547,-0.7656 -0.23,-0.2031 -0.503,-0.3516 -0.816,-0.4453 -0.312,-0.0938 -0.633,-0.1406 -0.957,-0.1406 h -2.852 c -0.597,0 -1.109,0.0625 -1.543,0.1797 -0.433,0.1171 -0.835,0.3359 -1.199,0.6484 -0.363,0.3125 -0.719,0.7383 -1.058,1.2773 -0.34,0.5352 -0.723,1.2227 -1.149,2.0743 l -8.207,15.4218 c -0.476,0.918 -0.961,1.9063 -1.453,2.9727 -0.492,1.0586 -0.934,2.0937 -1.324,3.0937 h -0.051 c 0.066,-1.2226 0.117,-2.4414 0.152,-3.6562 0.036,-1.2149 0.051,-2.4688 0.051,-3.7617 V 40.2891 c 0,-0.1719 -0.047,-0.3243 -0.14,-0.461 -0.094,-0.1367 -0.254,-0.25 -0.485,-0.3437 -0.23,-0.0938 -0.539,-0.1641 -0.93,-0.2149 -0.39,-0.0507 -0.894,-0.0781 -1.503,-0.0781 -0.594,0 -1.09,0.0274 -1.481,0.0781 -0.387,0.0508 -0.695,0.1211 -0.918,0.2149 -0.219,0.0937 -0.371,0.207 -0.457,0.3437 -0.082,0.1367 -0.129,0.2891 -0.129,0.461 v 29.6445 c 0,0.7969 0.235,1.3984 0.703,1.7969 0.469,0.3984 1.043,0.5976 1.719,0.5976 h 3.594 c 0.648,0 1.191,-0.0547 1.633,-0.164 0.445,-0.1133 0.839,-0.293 1.187,-0.5508 0.348,-0.2539 0.676,-0.6055 0.981,-1.0547 0.304,-0.4531 0.621,-1.0078 0.941,-1.6719 l 6.426,-12.0547 c 0.375,-0.7343 0.742,-1.4492 1.109,-2.1562 0.363,-0.7031 0.719,-1.4063 1.055,-2.1133 0.34,-0.707 0.672,-1.3984 0.996,-2.0781 0.324,-0.6797 0.637,-1.3594 0.945,-2.0391 h 0.024 c -0.051,1.1914 -0.09,2.4297 -0.114,3.7227 -0.027,1.289 -0.039,2.5234 -0.039,3.6953 V 71.332 c 0,0.1719 0.051,0.3282 0.153,0.461 0.101,0.1367 0.273,0.2578 0.511,0.3593 0.235,0.1016 0.551,0.1719 0.942,0.2149 0.39,0.043 0.894,0.0625 1.504,0.0625 0.578,0 1.062,-0.0195 1.453,-0.0625 0.39,-0.043 0.691,-0.1133 0.906,-0.2149 0.211,-0.1015 0.359,-0.2226 0.445,-0.3593 0.082,-0.1328 0.125,-0.2891 0.125,-0.461 v -29.6406 0" /><path
         id="path24"
         style="fill:#231f20;fill-opacity:1;fill-rule:nonzero;stroke:none"
         d="m 183.492,41.9688 c 0,-0.4922 -0.023,-0.9024 -0.062,-1.2344 -0.043,-0.3321 -0.106,-0.5977 -0.192,-0.8047 -0.086,-0.2031 -0.191,-0.3516 -0.32,-0.4453 -0.125,-0.0938 -0.266,-0.1406 -0.418,-0.1406 h -16.57 c -0.559,0 -1.032,0.1679 -1.414,0.5 -0.383,0.3281 -0.575,0.8671 -0.575,1.6171 v 28.7539 c 0,0.7461 0.192,1.2852 0.575,1.6172 0.382,0.3321 0.855,0.4961 1.414,0.4961 h 16.465 c 0.156,0 0.289,-0.0429 0.41,-0.1289 0.117,-0.082 0.222,-0.2304 0.304,-0.4414 0.086,-0.2148 0.153,-0.4844 0.192,-0.8164 0.043,-0.332 0.062,-0.7539 0.062,-1.2617 0,-0.4766 -0.019,-0.8789 -0.062,-1.2109 -0.039,-0.3321 -0.106,-0.5977 -0.192,-0.8047 -0.082,-0.2032 -0.187,-0.3516 -0.304,-0.4453 -0.121,-0.0938 -0.254,-0.1407 -0.41,-0.1407 h -11.774 v -8.0547 h 9.965 c 0.152,0 0.293,-0.0468 0.422,-0.1406 0.125,-0.0937 0.234,-0.2383 0.32,-0.4336 0.082,-0.1953 0.149,-0.457 0.188,-0.789 0.043,-0.3321 0.066,-0.7344 0.066,-1.211 0,-0.4922 -0.023,-0.9023 -0.066,-1.2226 -0.039,-0.3243 -0.106,-0.586 -0.188,-0.7813 -0.086,-0.1953 -0.195,-0.332 -0.32,-0.418 -0.129,-0.0859 -0.27,-0.1289 -0.422,-0.1289 h -9.965 V 44.5977 H 182.5 c 0.152,0 0.293,-0.0469 0.418,-0.1446 0.129,-0.0898 0.234,-0.2422 0.32,-0.4414 0.086,-0.207 0.149,-0.4726 0.192,-0.8047 0.039,-0.332 0.062,-0.7461 0.062,-1.2382 v 0" /><path
         id="path26"
         style="fill:#231f20;fill-opacity:1;fill-rule:nonzero;stroke:none"
         d="m 215.855,51.6328 c 0,-2.0234 -0.296,-3.832 -0.894,-5.4336 -0.594,-1.5976 -1.469,-2.9453 -2.625,-4.0508 -1.156,-1.1054 -2.582,-1.9453 -4.281,-2.5234 -1.7,-0.5781 -3.657,-0.8672 -5.864,-0.8672 -2.074,0 -3.933,0.2578 -5.582,0.7774 -1.648,0.5195 -3.043,1.3046 -4.183,2.3593 -1.137,1.0547 -2.008,2.3633 -2.61,3.9375 -0.605,1.5703 -0.906,3.4102 -0.906,5.5196 v 20.0586 c 0,0.1718 0.055,0.3242 0.153,0.4609 0.101,0.1367 0.285,0.2461 0.55,0.3281 0.262,0.086 0.606,0.1563 1.032,0.2071 0.425,0.0507 0.968,0.0742 1.632,0.0742 0.645,0 1.18,-0.0235 1.602,-0.0742 0.426,-0.0508 0.769,-0.1211 1.023,-0.2071 0.254,-0.082 0.438,-0.1914 0.547,-0.3281 0.11,-0.1367 0.168,-0.2891 0.168,-0.4609 V 51.9375 c 0,-1.3086 0.16,-2.4453 0.481,-3.4023 0.324,-0.961 0.789,-1.7579 1.39,-2.3829 0.602,-0.6328 1.325,-1.1015 2.164,-1.4179 0.844,-0.3164 1.782,-0.4727 2.821,-0.4727 1.054,0 1.996,0.1641 2.828,0.4844 0.832,0.3242 1.539,0.7969 2.117,1.418 0.574,0.6211 1.023,1.3828 1.336,2.2929 0.316,0.9102 0.473,1.9414 0.473,3.0977 v 19.8555 c 0,0.1718 0.05,0.3242 0.152,0.4609 0.105,0.1367 0.281,0.2461 0.535,0.3281 0.254,0.086 0.598,0.1563 1.035,0.2071 0.43,0.0507 0.969,0.0742 1.617,0.0742 0.645,0 1.176,-0.0235 1.594,-0.0742 0.414,-0.0508 0.75,-0.1211 1.008,-0.2071 0.254,-0.082 0.43,-0.1914 0.535,-0.3281 0.102,-0.1367 0.152,-0.2891 0.152,-0.4609 v -19.7774 0" /><path
         id="path28"
         style="fill:#231f20;fill-opacity:1;fill-rule:nonzero;stroke:none"
         d="m 247.016,40.2109 c 0,-0.1875 -0.032,-0.3437 -0.098,-0.4726 -0.07,-0.125 -0.23,-0.2344 -0.488,-0.3203 -0.254,-0.0821 -0.625,-0.1407 -1.117,-0.1758 -0.497,-0.0313 -1.168,-0.0508 -2.016,-0.0508 -0.715,0 -1.281,0.0195 -1.707,0.0508 -0.426,0.0351 -0.762,0.0976 -1.008,0.1914 -0.246,0.0937 -0.422,0.2148 -0.523,0.3594 -0.098,0.1406 -0.188,0.3164 -0.254,0.5195 l -2.957,7.3672 c -0.36,0.832 -0.707,1.5703 -1.043,2.2187 -0.344,0.6446 -0.719,1.1836 -1.137,1.6172 -0.418,0.4336 -0.895,0.7617 -1.441,0.9844 -0.543,0.2188 -1.172,0.3281 -1.887,0.3281 h -2.09 V 40.2617 c 0,-0.1719 -0.055,-0.3203 -0.164,-0.457 -0.109,-0.1367 -0.293,-0.2461 -0.547,-0.332 -0.258,-0.086 -0.598,-0.1524 -1.019,-0.2032 -0.426,-0.0507 -0.969,-0.0781 -1.633,-0.0781 -0.649,0 -1.184,0.0274 -1.617,0.0781 -0.434,0.0508 -0.778,0.1172 -1.036,0.2032 -0.254,0.0859 -0.433,0.1953 -0.535,0.332 -0.101,0.1367 -0.152,0.2851 -0.152,0.457 v 29.9531 c 0,0.7461 0.191,1.2852 0.574,1.6172 0.383,0.3321 0.856,0.4961 1.414,0.4961 h 8.539 c 0.867,0 1.578,-0.0156 2.145,-0.0508 0.558,-0.0312 1.07,-0.0781 1.527,-0.125 1.324,-0.1875 2.52,-0.5117 3.582,-0.9687 1.063,-0.4609 1.961,-1.0586 2.699,-1.7969 0.743,-0.7422 1.309,-1.6133 1.7,-2.6289 0.39,-1.0117 0.586,-2.168 0.586,-3.4765 0,-1.1055 -0.145,-2.1133 -0.422,-3.0196 -0.282,-0.914 -0.692,-1.7226 -1.239,-2.4375 -0.543,-0.7148 -1.211,-1.3359 -2.011,-1.8594 -0.801,-0.5273 -1.707,-0.9531 -2.731,-1.2734 0.496,-0.2383 0.957,-0.5273 1.391,-0.8711 0.433,-0.3398 0.844,-0.75 1.222,-1.2344 0.383,-0.4843 0.747,-1.0351 1.086,-1.6562 0.34,-0.6172 0.672,-1.3203 0.993,-2.1016 l 2.777,-6.5 c 0.258,-0.6484 0.426,-1.1172 0.512,-1.4179 0.086,-0.2969 0.125,-0.5274 0.125,-0.6993 z m -8.637,22.3789 c 0,1.086 -0.25,2.0079 -0.742,2.754 -0.492,0.75 -1.297,1.2773 -2.418,1.582 -0.344,0.0859 -0.727,0.1523 -1.164,0.2031 -0.43,0.0508 -1.032,0.0781 -1.797,0.0781 h -3.008 v -9.3554 h 3.418 c 0.949,0 1.785,0.1132 2.496,0.3437 0.715,0.2305 1.309,0.5508 1.785,0.9688 0.477,0.4179 0.832,0.914 1.071,1.4922 0.238,0.5781 0.359,1.2226 0.359,1.9335 v 0" /><path
         id="path30"
         style="fill:#231f20;fill-opacity:1;fill-rule:nonzero;stroke:none"
         d="m 281.137,56.2188 c 0,-2.7383 -0.336,-5.1836 -1.016,-7.3399 -0.683,-2.1601 -1.691,-3.9922 -3.035,-5.4922 -1.344,-1.5078 -3.004,-2.6523 -4.981,-3.4414 -1.984,-0.793 -4.273,-1.1875 -6.871,-1.1875 -2.566,0 -4.804,0.336 -6.718,1.0078 -1.911,0.668 -3.504,1.6953 -4.782,3.0742 -1.273,1.3711 -2.226,3.125 -2.867,5.2461 -0.633,2.125 -0.953,4.6407 -0.953,7.5469 0,2.668 0.34,5.0703 1.02,7.1992 0.679,2.1328 1.687,3.9493 3.035,5.4414 1.34,1.4961 3,2.6446 4.98,3.4454 1.981,0.7968 4.278,1.1992 6.895,1.1992 2.5,0 4.703,-0.336 6.617,-0.9961 1.91,-0.6641 3.508,-1.6836 4.793,-3.0586 1.281,-1.375 2.25,-3.1172 2.906,-5.211 0.653,-2.1015 0.977,-4.5781 0.977,-7.4335 z m -7.032,-0.3555 c 0,1.7344 -0.136,3.3086 -0.41,4.7265 -0.273,1.4219 -0.734,2.6329 -1.386,3.6485 -0.657,1.0078 -1.528,1.789 -2.618,2.3437 -1.086,0.5547 -2.445,0.8282 -4.074,0.8282 -1.648,0 -3.027,-0.3086 -4.133,-0.9336 -1.101,-0.6172 -1.996,-1.4453 -2.675,-2.4844 -0.68,-1.0352 -1.161,-2.2461 -1.442,-3.6289 -0.277,-1.3867 -0.418,-2.8516 -0.418,-4.3985 0,-1.8007 0.137,-3.4218 0.406,-4.8593 0.274,-1.4336 0.731,-2.6602 1.379,-3.6797 0.645,-1.0195 1.512,-1.7969 2.598,-2.332 1.09,-0.5352 2.457,-0.8047 4.106,-0.8047 1.648,0 3.023,0.3086 4.128,0.9179 1.106,0.6133 1.997,1.4453 2.676,2.5 0.68,1.0508 1.16,2.2813 1.442,3.6797 0.281,1.4063 0.421,2.8946 0.421,4.4766 v 0" /><path
         id="path32"
         style="fill:#231f20;fill-opacity:1;fill-rule:nonzero;stroke:none"
         d="m 308.836,62.3086 c 0,-1.8477 -0.289,-3.4883 -0.867,-4.918 -0.578,-1.4258 -1.418,-2.6289 -2.524,-3.6054 -1.105,-0.9766 -2.461,-1.7227 -4.066,-2.2305 -1.606,-0.5078 -3.496,-0.7656 -5.672,-0.7656 h -2.754 V 40.2617 c 0,-0.1719 -0.055,-0.3203 -0.164,-0.457 -0.109,-0.1367 -0.293,-0.2461 -0.547,-0.332 -0.254,-0.086 -0.597,-0.1524 -1.019,-0.2032 -0.426,-0.0507 -0.969,-0.0781 -1.633,-0.0781 -0.645,0 -1.188,0.0274 -1.617,0.0781 -0.434,0.0508 -0.782,0.1172 -1.035,0.2032 -0.254,0.0859 -0.43,0.1953 -0.532,0.332 -0.105,0.1367 -0.156,0.2851 -0.156,0.457 v 29.6719 c 0,0.7969 0.207,1.3984 0.625,1.7969 0.414,0.3984 0.965,0.5976 1.645,0.5976 h 7.773 c 0.781,0 1.523,-0.0273 2.234,-0.0898 0.703,-0.0586 1.547,-0.1875 2.532,-0.3789 0.988,-0.1992 1.988,-0.5586 2.996,-1.086 1.011,-0.5273 1.875,-1.1914 2.59,-2 0.71,-0.8086 1.257,-1.75 1.628,-2.832 0.375,-1.0781 0.563,-2.2891 0.563,-3.6328 z m -7.008,-0.4805 c 0,1.1524 -0.207,2.1055 -0.613,2.8516 -0.41,0.75 -0.91,1.3008 -1.504,1.6601 -0.594,0.3555 -1.223,0.5782 -1.875,0.6719 -0.656,0.0977 -1.328,0.1406 -2.027,0.1406 h -2.856 V 55.9648 h 3.008 c 1.074,0 1.969,0.1446 2.691,0.4336 0.723,0.2891 1.313,0.6914 1.77,1.211 0.461,0.5156 0.808,1.1367 1.047,1.8594 0.238,0.7226 0.359,1.5078 0.359,2.3593 v 0" /><path
         id="path34"
         style="fill:#231f20;fill-opacity:1;fill-rule:nonzero;stroke:none"
         d="m 333.066,41.9688 c 0,-0.4922 -0.023,-0.9024 -0.066,-1.2344 -0.039,-0.3321 -0.105,-0.5977 -0.187,-0.8047 -0.086,-0.2031 -0.192,-0.3516 -0.321,-0.4453 -0.125,-0.0938 -0.265,-0.1406 -0.422,-0.1406 h -16.566 c -0.563,0 -1.031,0.1679 -1.418,0.5 -0.379,0.3281 -0.57,0.8671 -0.57,1.6171 v 28.7539 c 0,0.7461 0.191,1.2852 0.57,1.6172 0.387,0.3321 0.855,0.4961 1.418,0.4961 h 16.469 c 0.148,0 0.285,-0.0429 0.402,-0.1289 0.121,-0.082 0.223,-0.2304 0.309,-0.4414 0.082,-0.2148 0.148,-0.4844 0.191,-0.8164 0.039,-0.332 0.063,-0.7539 0.063,-1.2617 0,-0.4766 -0.024,-0.8789 -0.063,-1.2109 -0.043,-0.3321 -0.109,-0.5977 -0.191,-0.8047 -0.086,-0.2032 -0.188,-0.3516 -0.309,-0.4453 -0.117,-0.0938 -0.254,-0.1407 -0.402,-0.1407 h -11.778 v -8.0547 h 9.965 c 0.153,0 0.293,-0.0468 0.422,-0.1406 0.125,-0.0937 0.231,-0.2383 0.316,-0.4336 0.086,-0.1953 0.149,-0.457 0.196,-0.789 0.039,-0.3321 0.058,-0.7344 0.058,-1.211 0,-0.4922 -0.019,-0.9023 -0.058,-1.2226 -0.047,-0.3243 -0.11,-0.586 -0.196,-0.7813 -0.085,-0.1953 -0.191,-0.332 -0.316,-0.418 -0.129,-0.0859 -0.269,-0.1289 -0.422,-0.1289 h -9.965 v -9.3007 h 11.875 c 0.157,0 0.297,-0.0469 0.422,-0.1446 0.129,-0.0898 0.235,-0.2422 0.321,-0.4414 0.082,-0.207 0.148,-0.4726 0.187,-0.8047 0.043,-0.332 0.066,-0.7461 0.066,-1.2382 v 0" /><path
         id="path36"
         style="fill:#231f20;fill-opacity:1;fill-rule:nonzero;stroke:none"
         d="m 365.527,41.8398 c 0.207,-0.6093 0.332,-1.0937 0.383,-1.4492 0.051,-0.3593 -0.015,-0.625 -0.203,-0.8047 -0.187,-0.1796 -0.519,-0.289 -0.996,-0.332 -0.473,-0.043 -1.129,-0.0625 -1.961,-0.0625 -0.867,0 -1.543,0.0117 -2.023,0.0391 -0.489,0.0234 -0.86,0.0742 -1.114,0.1523 -0.254,0.0742 -0.429,0.1797 -0.531,0.3164 -0.105,0.1367 -0.191,0.3164 -0.258,0.5391 l -2.219,6.625 h -12.386 l -2.09,-6.4453 c -0.066,-0.2422 -0.156,-0.4375 -0.27,-0.6016 -0.109,-0.1641 -0.289,-0.2891 -0.535,-0.3828 -0.246,-0.0938 -0.594,-0.1563 -1.043,-0.1914 -0.453,-0.0313 -1.043,-0.0508 -1.773,-0.0508 -0.781,0 -1.395,0.0274 -1.836,0.0781 -0.442,0.0508 -0.746,0.1719 -0.918,0.3672 -0.168,0.1953 -0.227,0.4727 -0.176,0.8281 0.051,0.3594 0.176,0.836 0.383,1.4297 l 10.172,29.2618 c 0.097,0.289 0.219,0.5234 0.355,0.7031 0.133,0.1758 0.352,0.3125 0.649,0.4062 0.297,0.0938 0.711,0.1524 1.238,0.1797 0.523,0.0235 1.223,0.0352 2.09,0.0352 1.004,0 1.801,-0.0117 2.394,-0.0352 0.598,-0.0273 1.059,-0.0859 1.391,-0.1797 0.332,-0.0937 0.566,-0.2343 0.715,-0.4218 0.144,-0.1836 0.265,-0.4415 0.367,-0.7618 l 10.195,-29.2422 z m -15.14,24.1954 h -0.024 l -4.668,-14.0235 h 9.356 l -4.664,14.0235 v 0" /><path
         id="path38"
         style="fill:#231f20;fill-opacity:1;fill-rule:nonzero;stroke:none"
         d="m 13.8203,20.1875 c 0,-0.1602 -0.0078,-0.3008 -0.0234,-0.418 -0.0156,-0.1211 -0.0469,-0.2187 -0.086,-0.289 -0.0468,-0.0742 -0.0937,-0.125 -0.1523,-0.1563 -0.0547,-0.0351 -0.1094,-0.0547 -0.168,-0.0547 H 7.34766 v -5.6054 h 5.71094 c 0.0586,0 0.1172,-0.0157 0.168,-0.043 0.0586,-0.0313 0.1054,-0.0781 0.1523,-0.1484 0.0391,-0.0704 0.0703,-0.1602 0.0859,-0.2774 0.0157,-0.1094 0.0274,-0.2578 0.0274,-0.4375 0,-0.1601 -0.0117,-0.2969 -0.0274,-0.414 -0.0156,-0.1133 -0.0468,-0.2071 -0.0859,-0.2813 -0.0469,-0.0703 -0.0937,-0.125 -0.1523,-0.1641 -0.0508,-0.0351 -0.1094,-0.0586 -0.168,-0.0586 H 7.34766 V 4.97266 C 7.34766,4.91016 7.32813,4.85547 7.29688,4.80078 7.26563,4.74219 7.20313,4.69922 7.11719,4.67188 7.03125,4.64063 6.92188,4.61719 6.78906,4.59766 6.65234,4.57422 6.47266,4.5625 6.25391,4.5625 6.04688,4.5625 5.87109,4.57422 5.72656,4.59766 5.58594,4.61719 5.46875,4.64063 5.38281,4.67188 5.30078,4.69922 5.23828,4.74219 5.20703,4.80078 5.17188,4.85547 5.15625,4.91016 5.15625,4.97266 V 20.2383 c 0,0.3359 0.08594,0.5625 0.26172,0.6992 0.17187,0.1289 0.35937,0.1953 0.55078,0.1953 h 7.42185 c 0.0586,0 0.1133,-0.0195 0.168,-0.0508 0.0586,-0.0351 0.1055,-0.0898 0.1523,-0.164 0.0391,-0.0782 0.0704,-0.1797 0.086,-0.3008 0.0156,-0.125 0.0234,-0.2656 0.0234,-0.4297 v 0" /><path
         id="path40"
         style="fill:#231f20;fill-opacity:1;fill-rule:nonzero;stroke:none"
         d="m 27.2383,10.8203 c 0,-0.93358 -0.125,-1.79296 -0.3711,-2.57811 C 26.6211,7.45313 26.25,6.77734 25.7656,6.20703 25.2734,5.63672 24.6641,5.19531 23.9297,4.875 23.1953,4.55859 22.3438,4.39844 21.3711,4.39844 c -0.9414,0 -1.7617,0.13672 -2.4648,0.41797 -0.7032,0.28125 -1.2852,0.6914 -1.754,1.22656 -0.4648,0.53125 -0.8125,1.18359 -1.0429,1.94922 -0.2305,0.76172 -0.3438,1.6289 -0.3438,2.59761 0,0.9375 0.1172,1.7969 0.3633,2.5821 0.2383,0.7851 0.6055,1.4648 1.0977,2.0351 0.4882,0.5664 1.0937,1.0078 1.8281,1.3243 0.7305,0.3164 1.582,0.4726 2.5586,0.4726 0.9453,0 1.7656,-0.1406 2.4687,-0.4219 0.6993,-0.2812 1.2852,-0.6875 1.75,-1.2226 0.4688,-0.5352 0.8203,-1.1875 1.0547,-1.9492 0.2305,-0.7657 0.3516,-1.6289 0.3516,-2.5899 z m -2.1797,-0.1406 c 0,0.6211 -0.0586,1.207 -0.1758,1.7617 -0.1172,0.5508 -0.3086,1.0352 -0.5742,1.4531 -0.2656,0.4141 -0.625,0.7461 -1.0781,0.9844 -0.4532,0.2422 -1.0196,0.3633 -1.6992,0.3633 -0.625,0 -1.1641,-0.1094 -1.6133,-0.3281 -0.4492,-0.2227 -0.8203,-0.5352 -1.1133,-0.9375 -0.2891,-0.4024 -0.5039,-0.8828 -0.6484,-1.4336 -0.1407,-0.5547 -0.211,-1.1563 -0.211,-1.8125 0,-0.625 0.0547,-1.21878 0.1719,-1.76956 0.1172,-0.55469 0.3086,-1.03516 0.5781,-1.44922 0.2695,-0.41016 0.6328,-0.73828 1.0899,-0.98047 0.4531,-0.24219 1.0195,-0.36328 1.6953,-0.36328 0.6172,0 1.1562,0.11328 1.6093,0.33203 0.4532,0.21875 0.8282,0.53125 1.1172,0.92969 0.2891,0.40234 0.5039,0.8789 0.6407,1.42969 0.1367,0.55078 0.2109,1.16012 0.2109,1.82032 v 0" /><path
         id="path42"
         style="fill:#231f20;fill-opacity:1;fill-rule:nonzero;stroke:none"
         d="m 40.2109,4.95703 c 0,-0.07031 -0.0156,-0.125 -0.0507,-0.17187 C 40.125,4.73828 40.0703,4.69922 39.9922,4.66406 39.918,4.62891 39.8086,4.60547 39.6758,4.58984 39.5391,4.57031 39.3672,4.5625 39.1641,4.5625 c -0.211,0 -0.3828,0.00781 -0.5235,0.02734 -0.1328,0.01563 -0.2422,0.03907 -0.3164,0.07422 -0.0781,0.03516 -0.1328,0.07422 -0.1679,0.1211 -0.0313,0.04687 -0.0508,0.10156 -0.0508,0.17187 v 6.71877 c 0,0.6523 -0.0508,1.1797 -0.1524,1.5781 -0.1015,0.4024 -0.25,0.7461 -0.4453,1.0352 -0.1953,0.2851 -0.4492,0.5078 -0.7578,0.6601 -0.3125,0.1563 -0.6719,0.2305 -1.0781,0.2305 -0.5235,0 -1.0508,-0.1875 -1.5781,-0.5625 -0.5274,-0.3711 -1.0821,-0.918 -1.6602,-1.6445 V 4.95703 c 0,-0.07031 -0.0117,-0.125 -0.0508,-0.17187 C 32.3477,4.73828 32.2969,4.69922 32.2188,4.66406 32.1406,4.62891 32.0352,4.60547 31.8984,4.58984 31.7617,4.57031 31.5898,4.5625 31.3789,4.5625 c -0.2031,0 -0.375,0.00781 -0.5117,0.02734 C 30.7344,4.60547 30.625,4.62891 30.543,4.66406 30.4609,4.69922 30.4063,4.73828 30.3789,4.78516 30.3477,4.83203 30.332,4.88672 30.332,4.95703 V 16.4297 c 0,0.0664 0.0118,0.125 0.0391,0.1719 0.0234,0.0468 0.0781,0.0898 0.1523,0.1289 0.0743,0.0351 0.1758,0.0625 0.293,0.0742 0.1211,0.0117 0.2774,0.0195 0.4727,0.0195 0.1875,0 0.3398,-0.0078 0.4648,-0.0195 0.1211,-0.0117 0.2188,-0.0391 0.2852,-0.0742 0.0703,-0.0391 0.1172,-0.0821 0.1484,-0.1289 0.0273,-0.0469 0.043,-0.1055 0.043,-0.1719 v -1.5156 c 0.6445,0.7226 1.289,1.25 1.9297,1.5859 0.6445,0.3359 1.2929,0.5039 1.9453,0.5039 0.7656,0 1.4101,-0.1289 1.9336,-0.3906 0.5195,-0.2578 0.9453,-0.6055 1.2656,-1.0391 0.3242,-0.4297 0.5547,-0.9375 0.6953,-1.5195 0.1406,-0.5859 0.2109,-1.2813 0.2109,-2.0977 v -6.99997 0" /><path
         id="path44"
         style="fill:#231f20;fill-opacity:1;fill-rule:nonzero;stroke:none"
         d="m 53.8711,4.95703 c 0,-0.07031 -0.0117,-0.125 -0.043,-0.17969 C 53.8008,4.73047 53.7461,4.6875 53.6758,4.65625 53.6016,4.62891 53.5078,4.60547 53.3906,4.58984 53.2695,4.57031 53.125,4.5625 52.9531,4.5625 c -0.1758,0 -0.3242,0.00781 -0.4414,0.02734 C 52.3906,4.60547 52.293,4.62891 52.2148,4.65625 52.1406,4.6875 52.0859,4.73047 52.0508,4.77734 52.0156,4.83203 52,4.88672 52,4.95703 V 6.47656 C 51.3984,5.82031 50.7695,5.3125 50.1172,4.94531 49.4727,4.58203 48.7578,4.39844 47.9844,4.39844 c -0.8399,0 -1.5586,0.16406 -2.1524,0.48828 -0.5976,0.32812 -1.0781,0.76953 -1.4492,1.32422 -0.3672,0.55859 -0.6367,1.21484 -0.8086,1.96484 -0.1719,0.75391 -0.2539,1.54297 -0.2539,2.37502 0,0.9883 0.1055,1.875 0.3164,2.6719 0.2149,0.7929 0.5274,1.4726 0.9453,2.0351 0.418,0.5586 0.9297,0.9922 1.5508,1.293 0.6133,0.3008 1.3281,0.4531 2.1328,0.4531 0.6719,0 1.2852,-0.1484 1.8438,-0.4414 0.5547,-0.293 1.1054,-0.7227 1.6484,-1.293 v 6.6641 c 0,0.0586 0.0156,0.1172 0.043,0.1758 0.0312,0.0508 0.0859,0.0976 0.1719,0.125 0.0859,0.0312 0.1953,0.0586 0.3281,0.0781 0.1289,0.0195 0.2969,0.0313 0.5039,0.0313 0.2109,0 0.3828,-0.0118 0.5195,-0.0313 0.1367,-0.0195 0.2422,-0.0469 0.3203,-0.0781 0.0743,-0.0274 0.1328,-0.0742 0.168,-0.125 0.0391,-0.0586 0.0586,-0.1172 0.0586,-0.1758 V 4.95703 Z m -2.1133,8.07027 c -0.5703,0.7032 -1.1211,1.2422 -1.6484,1.6133 -0.5352,0.3672 -1.086,0.5547 -1.668,0.5547 -0.5312,0 -0.9883,-0.1289 -1.3594,-0.3867 -0.3789,-0.25 -0.6797,-0.5898 -0.914,-1.0039 -0.2305,-0.418 -0.4024,-0.8867 -0.5117,-1.418 C 45.5508,11.8633 45.5,11.3281 45.5,10.7813 c 0,-0.5743 0.0469,-1.14067 0.1328,-1.69146 0.0899,-0.55468 0.2461,-1.04687 0.4649,-1.47265 0.2226,-0.42969 0.5156,-0.77735 0.8789,-1.03516 0.3672,-0.25781 0.8242,-0.38672 1.3789,-0.38672 0.2812,0 0.5508,0.03907 0.8086,0.11328 0.2578,0.07813 0.5234,0.20313 0.7968,0.38282 0.2735,0.17578 0.5547,0.41015 0.8516,0.69531 0.3008,0.28516 0.6133,0.63281 0.9453,1.05078 v 4.5898 0" /><path
         id="path46"
         style="fill:#231f20;fill-opacity:1;fill-rule:nonzero;stroke:none"
         d="m 68.4297,10.8203 c 0,-0.93358 -0.125,-1.79296 -0.3711,-2.57811 C 67.8125,7.45313 67.4453,6.77734 66.957,6.20703 66.4688,5.63672 65.8555,5.19531 65.1211,4.875 64.3867,4.55859 63.5352,4.39844 62.5664,4.39844 c -0.9453,0 -1.7656,0.13672 -2.4648,0.41797 -0.7032,0.28125 -1.2891,0.6914 -1.7539,1.22656 -0.4688,0.53125 -0.8164,1.18359 -1.0469,1.94922 -0.2305,0.76172 -0.3438,1.6289 -0.3438,2.59761 0,0.9375 0.1211,1.7969 0.3633,2.5821 0.2422,0.7851 0.6094,1.4648 1.0977,2.0351 0.4883,0.5664 1.0976,1.0078 1.8281,1.3243 0.7305,0.3164 1.5859,0.4726 2.5625,0.4726 0.9414,0 1.7656,-0.1406 2.4648,-0.4219 0.7032,-0.2812 1.2852,-0.6875 1.7539,-1.2226 0.4649,-0.5352 0.8165,-1.1875 1.0508,-1.9492 0.2344,-0.7657 0.3516,-1.6289 0.3516,-2.5899 z M 66.25,10.6797 c 0,0.6211 -0.0586,1.207 -0.1758,1.7617 -0.1133,0.5508 -0.3047,1.0352 -0.5703,1.4531 -0.2656,0.4141 -0.6289,0.7461 -1.082,0.9844 -0.4531,0.2422 -1.0196,0.3633 -1.6953,0.3633 -0.6289,0 -1.1641,-0.1094 -1.6133,-0.3281 C 60.6602,14.6914 60.2891,14.3789 60,13.9766 59.707,13.5742 59.4922,13.0938 59.3477,12.543 c -0.1407,-0.5547 -0.211,-1.1563 -0.211,-1.8125 0,-0.625 0.0586,-1.21878 0.1719,-1.76956 0.1172,-0.55469 0.3125,-1.03516 0.5781,-1.44922 0.2735,-0.41016 0.6328,-0.73828 1.0899,-0.98047 0.4531,-0.24219 1.0195,-0.36328 1.6992,-0.36328 0.6172,0 1.1523,0.11328 1.6055,0.33203 0.457,0.21875 0.8281,0.53125 1.121,0.92969 0.2891,0.40234 0.504,0.8789 0.6407,1.42969 0.1367,0.55078 0.207,1.16012 0.207,1.82032 v 0" /><path
         id="path48"
         style="fill:#231f20;fill-opacity:1;fill-rule:nonzero;stroke:none"
         d="m 86.5273,9.26563 c 0,-0.77344 -0.1406,-1.46094 -0.4296,-2.06641 C 85.8164,6.59766 85.4219,6.08594 84.9141,5.66406 84.4102,5.24609 83.8125,4.92578 83.1289,4.71484 82.4453,4.50391 81.7109,4.39844 80.918,4.39844 c -0.5508,0 -1.0625,0.04687 -1.5352,0.13672 -0.4726,0.09375 -0.8906,0.21093 -1.2617,0.34765 -0.3672,0.13672 -0.6797,0.27344 -0.9297,0.42188 -0.2539,0.14453 -0.4258,0.26562 -0.5234,0.36719 -0.0977,0.10156 -0.1719,0.23046 -0.2188,0.38671 -0.0429,0.15625 -0.0664,0.36719 -0.0664,0.63282 0,0.1875 0.0078,0.33984 0.0235,0.46484 0.0195,0.12109 0.0429,0.22266 0.0781,0.30078 0.0312,0.07422 0.0781,0.12891 0.1289,0.16016 0.0469,0.02734 0.1094,0.04297 0.1758,0.04297 0.1172,0 0.2851,-0.07032 0.5039,-0.21485 0.2148,-0.14843 0.4961,-0.30468 0.8359,-0.47265 0.3399,-0.17188 0.75,-0.32813 1.2305,-0.48047 0.4765,-0.14844 1.0312,-0.22266 1.6601,-0.22266 0.4766,0 0.9141,0.0625 1.3086,0.19141 0.3946,0.1289 0.7344,0.30859 1.0157,0.54297 0.289,0.23437 0.5078,0.51953 0.6601,0.85937 0.1524,0.33985 0.2305,0.72656 0.2305,1.16016 0,0.46875 -0.1094,0.86719 -0.3203,1.19926 -0.211,0.3281 -0.4922,0.6211 -0.8438,0.8711 -0.3476,0.25 -0.7422,0.4804 -1.1914,0.6914 -0.4453,0.207 -0.9023,0.4179 -1.3672,0.6367 -0.4687,0.2148 -0.9219,0.457 -1.3672,0.7187 -0.4414,0.2617 -0.8359,0.5742 -1.1836,0.9297 -0.3476,0.3555 -0.6328,0.7735 -0.8476,1.2539 -0.2149,0.4844 -0.3242,1.0586 -0.3242,1.7305 0,0.6875 0.125,1.3008 0.3789,1.8398 0.2461,0.5391 0.5976,0.9922 1.0429,1.3594 0.4454,0.3633 0.9766,0.6445 1.5938,0.832 0.6133,0.1914 1.2812,0.2891 1.9922,0.2891 0.3672,0 0.7344,-0.0312 1.1054,-0.0977 0.3672,-0.0625 0.7149,-0.1484 1.043,-0.2539 0.3281,-0.1054 0.6172,-0.2265 0.875,-0.3554 0.2539,-0.1328 0.418,-0.2383 0.5039,-0.3203 0.0781,-0.0821 0.1289,-0.1446 0.1563,-0.1914 0.0273,-0.0469 0.0468,-0.1055 0.0664,-0.1758 0.0156,-0.0742 0.0273,-0.1641 0.039,-0.2617 0.0039,-0.1055 0.0118,-0.2344 0.0118,-0.3946 0,-0.1523 -0.0079,-0.289 -0.0196,-0.4101 -0.0117,-0.1211 -0.0312,-0.2188 -0.0586,-0.2969 -0.0273,-0.082 -0.0625,-0.1445 -0.1093,-0.1797 -0.0469,-0.0391 -0.0977,-0.0586 -0.1563,-0.0586 -0.0937,0 -0.2422,0.0586 -0.4414,0.1797 -0.1992,0.1172 -0.4453,0.25 -0.7305,0.3984 -0.289,0.1485 -0.6328,0.2852 -1.0273,0.4102 -0.3984,0.125 -0.8399,0.1836 -1.332,0.1836 -0.461,0 -0.8594,-0.0586 -1.1993,-0.1836 -0.3398,-0.125 -0.6211,-0.2852 -0.8398,-0.4922 -0.2227,-0.2031 -0.3867,-0.4453 -0.5,-0.7227 -0.1094,-0.2812 -0.1641,-0.582 -0.1641,-0.8945 0,-0.4609 0.1055,-0.8515 0.3203,-1.1836 0.211,-0.332 0.4922,-0.625 0.8438,-0.8789 0.3555,-0.2578 0.7578,-0.4922 1.207,-0.7031 0.4492,-0.2109 0.9102,-0.4297 1.375,-0.6445 0.4688,-0.2149 0.9258,-0.4571 1.3789,-0.711 0.4493,-0.2617 0.8516,-0.5664 1.2032,-0.9179 0.3515,-0.3555 0.6367,-0.7735 0.8554,-1.25 0.2149,-0.4805 0.3242,-1.04692 0.3242,-1.70317 v 0" /><path
         id="path50"
         style="fill:#231f20;fill-opacity:1;fill-rule:nonzero;stroke:none"
         d="M 100.09,10.8203 C 100.09,9.88672 99.9648,9.02734 99.7188,8.24219 99.4727,7.45313 99.1055,6.77734 98.6172,6.20703 98.1289,5.63672 97.5156,5.19531 96.7813,4.875 96.0469,4.55859 95.1953,4.39844 94.2227,4.39844 c -0.9414,0 -1.7618,0.13672 -2.4649,0.41797 -0.6992,0.28125 -1.2851,0.6914 -1.7539,1.22656 -0.4648,0.53125 -0.8125,1.18359 -1.043,1.94922 -0.2304,0.76172 -0.3437,1.6289 -0.3437,2.59761 0,0.9375 0.1211,1.7969 0.3633,2.5821 0.2422,0.7851 0.6093,1.4648 1.0976,2.0351 0.4883,0.5664 1.0977,1.0078 1.8282,1.3243 0.7304,0.3164 1.582,0.4726 2.5585,0.4726 0.9454,0 1.7657,-0.1406 2.4688,-0.4219 0.7031,-0.2812 1.2852,-0.6875 1.75,-1.2226 0.4687,-0.5352 0.8203,-1.1875 1.0547,-1.9492 0.2344,-0.7657 0.3517,-1.6289 0.3517,-2.5899 z m -2.1798,-0.1406 c 0,0.6211 -0.0586,1.207 -0.1758,1.7617 -0.1172,0.5508 -0.3086,1.0352 -0.5742,1.4531 -0.2657,0.4141 -0.625,0.7461 -1.0782,0.9844 -0.4531,0.2422 -1.0195,0.3633 -1.6953,0.3633 -0.6289,0 -1.164,-0.1094 -1.6172,-0.3281 -0.4492,-0.2227 -0.8203,-0.5352 -1.1093,-0.9375 -0.293,-0.4024 -0.5079,-0.8828 -0.6524,-1.4336 -0.1406,-0.5547 -0.2109,-1.1563 -0.2109,-1.8125 0,-0.625 0.0586,-1.21878 0.1719,-1.76956 0.1171,-0.55469 0.3125,-1.03516 0.5781,-1.44922 0.2734,-0.41016 0.6328,-0.73828 1.0898,-0.98047 0.4531,-0.24219 1.0196,-0.36328 1.6992,-0.36328 0.6172,0 1.1524,0.11328 1.6055,0.33203 0.4531,0.21875 0.8281,0.53125 1.1172,0.92969 0.293,0.40234 0.5039,0.8789 0.6445,1.42969 0.1367,0.55078 0.2071,1.16012 0.2071,1.82032 v 0" /><path
         id="path52"
         style="fill:#231f20;fill-opacity:1;fill-rule:nonzero;stroke:none"
         d="m 111.43,6.70703 c 0,-0.14453 -0.004,-0.27344 -0.012,-0.3789 -0.008,-0.10547 -0.023,-0.19532 -0.047,-0.26954 -0.019,-0.07031 -0.043,-0.13281 -0.074,-0.1875 -0.027,-0.05859 -0.098,-0.13671 -0.203,-0.24609 -0.106,-0.10547 -0.289,-0.23437 -0.543,-0.39062 -0.254,-0.16016 -0.539,-0.30079 -0.86,-0.42188 -0.316,-0.125 -0.664,-0.22266 -1.039,-0.30078 -0.371,-0.07422 -0.761,-0.11328 -1.16,-0.11328 -0.824,0 -1.554,0.13672 -2.191,0.40625 -0.637,0.27344 -1.172,0.66797 -1.598,1.1914 -0.43,0.52344 -0.758,1.16407 -0.984,1.92579 -0.227,0.76171 -0.336,1.63671 -0.336,2.62892 0,1.1328 0.137,2.1055 0.414,2.914 0.273,0.8125 0.652,1.4766 1.133,1.9961 0.48,0.5196 1.043,0.9024 1.695,1.1524 0.648,0.25 1.352,0.3789 2.109,0.3789 0.364,0 0.723,-0.0352 1.067,-0.1055 0.344,-0.0664 0.66,-0.1562 0.949,-0.2656 0.289,-0.1094 0.543,-0.2383 0.77,-0.3828 0.226,-0.1445 0.39,-0.2695 0.492,-0.3711 0.101,-0.1016 0.172,-0.1797 0.207,-0.2422 0.039,-0.0586 0.074,-0.1289 0.097,-0.207 0.024,-0.0821 0.043,-0.1758 0.051,-0.2735 0.008,-0.1054 0.012,-0.2304 0.012,-0.3867 0,-0.332 -0.039,-0.5625 -0.113,-0.6953 -0.075,-0.1289 -0.172,-0.1953 -0.282,-0.1953 -0.125,0 -0.273,0.0703 -0.437,0.2109 -0.168,0.1407 -0.379,0.2969 -0.633,0.4649 -0.254,0.1718 -0.562,0.3242 -0.926,0.4648 -0.359,0.1406 -0.785,0.211 -1.281,0.211 -1.008,0 -1.785,-0.3907 -2.324,-1.1641 -0.539,-0.7813 -0.809,-1.9063 -0.809,-3.3867 0,-0.74222 0.071,-1.38675 0.211,-1.94534 0.141,-0.55469 0.344,-1.01953 0.617,-1.39453 0.274,-0.375 0.606,-0.65235 1,-0.83594 0.399,-0.17969 0.848,-0.27344 1.356,-0.27344 0.488,0 0.914,0.07813 1.277,0.23047 0.363,0.15234 0.68,0.32031 0.949,0.50391 0.27,0.18359 0.493,0.34765 0.676,0.49609 0.184,0.14844 0.324,0.22266 0.426,0.22266 0.059,0 0.109,-0.01563 0.156,-0.05079 0.039,-0.03125 0.078,-0.08984 0.106,-0.17187 0.031,-0.07813 0.05,-0.18359 0.062,-0.30469 0.016,-0.125 0.02,-0.26953 0.02,-0.4375 v 0" /><path
         id="path54"
         style="fill:#231f20;fill-opacity:1;fill-rule:nonzero;stroke:none"
         d="m 116.566,20.3047 c 0,-0.4961 -0.093,-0.8281 -0.277,-1.0078 -0.191,-0.1797 -0.535,-0.2696 -1.035,-0.2696 -0.492,0 -0.828,0.086 -1.012,0.2618 -0.183,0.1757 -0.273,0.5039 -0.273,0.9882 0,0.4922 0.094,0.8282 0.281,1.0079 0.184,0.1796 0.527,0.2695 1.027,0.2695 0.496,0 0.832,-0.0899 1.016,-0.2617 0.184,-0.1758 0.273,-0.5078 0.273,-0.9883 z M 116.324,4.95703 c 0,-0.07031 -0.015,-0.125 -0.051,-0.17187 -0.031,-0.04688 -0.089,-0.08594 -0.164,-0.1211 -0.078,-0.03515 -0.183,-0.05859 -0.32,-0.07422 -0.133,-0.01953 -0.309,-0.02734 -0.523,-0.02734 -0.203,0 -0.371,0.00781 -0.508,0.02734 -0.137,0.01563 -0.246,0.03907 -0.324,0.07422 -0.082,0.03516 -0.137,0.07422 -0.168,0.1211 -0.028,0.04687 -0.043,0.10156 -0.043,0.17187 V 16.4297 c 0,0.0586 0.015,0.1133 0.043,0.1641 0.031,0.0507 0.086,0.0937 0.168,0.1289 0.078,0.0351 0.187,0.0586 0.324,0.0742 0.137,0.0195 0.305,0.0273 0.508,0.0273 0.214,0 0.39,-0.0078 0.523,-0.0273 0.137,-0.0156 0.242,-0.0391 0.32,-0.0742 0.075,-0.0352 0.133,-0.0782 0.164,-0.1289 0.036,-0.0508 0.051,-0.1055 0.051,-0.1641 v -11.47267 0" /><path
         id="path56"
         style="fill:#231f20;fill-opacity:1;fill-rule:nonzero;stroke:none"
         d="m 128.852,4.94531 c 0,-0.10156 -0.032,-0.17968 -0.098,-0.23047 -0.07,-0.05078 -0.16,-0.08593 -0.281,-0.11328 -0.121,-0.02734 -0.297,-0.03906 -0.524,-0.03906 -0.222,0 -0.398,0.01172 -0.527,0.03906 -0.133,0.02735 -0.231,0.0625 -0.289,0.11328 -0.059,0.05079 -0.09,0.12891 -0.09,0.23047 v 1.14844 c -0.5,-0.53516 -1.059,-0.95312 -1.676,-1.25 -0.617,-0.29687 -1.265,-0.44531 -1.957,-0.44531 -0.601,0 -1.148,0.07812 -1.637,0.23437 -0.488,0.16016 -0.902,0.38672 -1.246,0.6836 -0.347,0.29687 -0.613,0.66015 -0.804,1.09375 -0.192,0.43359 -0.289,0.92578 -0.289,1.48047 0,0.64453 0.132,1.20312 0.394,1.67968 0.266,0.47659 0.645,0.87109 1.137,1.18749 0.492,0.3164 1.098,0.5508 1.808,0.707 0.715,0.1563 1.516,0.2344 2.411,0.2344 h 1.578 v 0.8946 c 0,0.4414 -0.043,0.832 -0.141,1.1718 -0.094,0.3399 -0.242,0.6211 -0.449,0.8477 -0.211,0.2226 -0.477,0.3945 -0.809,0.5078 -0.332,0.1172 -0.742,0.1719 -1.222,0.1719 -0.524,0 -0.985,-0.0586 -1.399,-0.1836 -0.414,-0.1211 -0.773,-0.2578 -1.082,-0.4102 -0.312,-0.1484 -0.57,-0.2812 -0.777,-0.4062 -0.211,-0.1211 -0.363,-0.1836 -0.465,-0.1836 -0.066,0 -0.129,0.0195 -0.18,0.0508 -0.05,0.0351 -0.097,0.0859 -0.133,0.1562 -0.039,0.0625 -0.066,0.1524 -0.082,0.2578 -0.019,0.1055 -0.027,0.2227 -0.027,0.3516 0,0.2109 0.016,0.3789 0.043,0.5039 0.031,0.1211 0.102,0.2383 0.219,0.3516 0.113,0.1093 0.312,0.2382 0.594,0.3867 0.281,0.1484 0.601,0.2812 0.968,0.4062 0.364,0.125 0.762,0.2266 1.196,0.3047 0.433,0.082 0.871,0.125 1.312,0.125 0.824,0 1.527,-0.0976 2.106,-0.2812 0.578,-0.1875 1.046,-0.461 1.402,-0.8243 0.355,-0.3593 0.613,-0.8086 0.777,-1.3398 0.16,-0.5391 0.239,-1.1602 0.239,-1.875 V 4.94531 Z m -2.09,5.23829 h -1.797 c -0.578,0 -1.078,-0.0469 -1.504,-0.1445 -0.422,-0.09769 -0.777,-0.24222 -1.055,-0.43754 -0.281,-0.1875 -0.488,-0.41797 -0.617,-0.6875 -0.133,-0.26562 -0.199,-0.57422 -0.199,-0.92187 0,-0.59766 0.187,-1.07031 0.566,-1.42188 0.379,-0.35547 0.907,-0.52734 1.586,-0.52734 0.555,0 1.067,0.14062 1.535,0.41797 0.473,0.28125 0.969,0.71094 1.485,1.28906 v 2.4336 0" /><path
         id="path58"
         style="fill:#231f20;fill-opacity:1;fill-rule:nonzero;stroke:none"
         d="m 134.82,4.95703 c 0,-0.07031 -0.015,-0.125 -0.05,-0.17187 -0.036,-0.04688 -0.09,-0.08594 -0.168,-0.1211 -0.075,-0.03515 -0.184,-0.05859 -0.321,-0.07422 -0.133,-0.01953 -0.308,-0.02734 -0.519,-0.02734 -0.203,0 -0.375,0.00781 -0.512,0.02734 -0.133,0.01563 -0.242,0.03907 -0.324,0.07422 -0.082,0.03516 -0.137,0.07422 -0.164,0.1211 -0.032,0.04687 -0.047,0.10156 -0.047,0.17187 V 21.9844 c 0,0.0703 0.015,0.1289 0.047,0.1797 0.027,0.0507 0.082,0.0937 0.164,0.1289 0.082,0.0312 0.191,0.0586 0.324,0.0742 0.137,0.0195 0.309,0.0273 0.512,0.0273 0.211,0 0.386,-0.0078 0.519,-0.0273 0.137,-0.0156 0.246,-0.043 0.321,-0.0742 0.078,-0.0352 0.132,-0.0782 0.168,-0.1289 0.035,-0.0508 0.05,-0.1094 0.05,-0.1797 v -17.02737 0" /><path
         id="path60"
         style="fill:#231f20;fill-opacity:1;fill-rule:nonzero;stroke:none"
         d="m 154.027,5.54688 c 0,-0.15625 -0.011,-0.28907 -0.027,-0.40235 -0.016,-0.11719 -0.047,-0.21094 -0.09,-0.28906 -0.043,-0.07813 -0.09,-0.12891 -0.148,-0.16406 -0.051,-0.03516 -0.114,-0.05078 -0.184,-0.05078 h -7.914 c -0.195,0 -0.379,0.0664 -0.555,0.19531 -0.175,0.13281 -0.261,0.36328 -0.261,0.69531 V 20.2383 c 0,0.3359 0.086,0.5625 0.261,0.6992 0.176,0.1289 0.36,0.1953 0.555,0.1953 h 7.828 c 0.067,0 0.125,-0.0195 0.184,-0.0508 0.054,-0.0351 0.097,-0.0898 0.133,-0.164 0.035,-0.0782 0.062,-0.1758 0.082,-0.2891 0.019,-0.1172 0.035,-0.2578 0.035,-0.4297 0,-0.1484 -0.016,-0.2851 -0.035,-0.3984 -0.02,-0.1133 -0.047,-0.211 -0.082,-0.2813 -0.036,-0.0742 -0.079,-0.125 -0.133,-0.1562 -0.059,-0.0352 -0.117,-0.0547 -0.184,-0.0547 h -6.449 v -5.1758 h 5.531 c 0.067,0 0.125,-0.0195 0.184,-0.0547 0.055,-0.039 0.101,-0.0937 0.14,-0.1601 0.036,-0.0664 0.067,-0.1641 0.082,-0.2813 0.02,-0.1172 0.028,-0.2578 0.028,-0.4179 0,-0.1524 -0.008,-0.2852 -0.028,-0.3985 -0.015,-0.1094 -0.046,-0.1992 -0.082,-0.2656 -0.039,-0.0664 -0.085,-0.1172 -0.14,-0.1445 -0.059,-0.0313 -0.117,-0.0469 -0.184,-0.0469 h -5.531 V 6.46094 h 6.535 c 0.07,0 0.133,-0.01563 0.184,-0.05078 0.058,-0.03125 0.105,-0.08594 0.148,-0.15625 0.043,-0.07813 0.074,-0.16797 0.09,-0.28125 0.016,-0.11328 0.027,-0.25782 0.027,-0.42578 v 0" /><path
         id="path62"
         style="fill:#231f20;fill-opacity:1;fill-rule:nonzero;stroke:none"
         d="m 167.18,4.95703 c 0,-0.07031 -0.016,-0.125 -0.047,-0.17187 -0.028,-0.04688 -0.082,-0.08594 -0.156,-0.1211 -0.079,-0.03515 -0.176,-0.05859 -0.301,-0.07422 -0.125,-0.01953 -0.274,-0.02734 -0.453,-0.02734 -0.196,0 -0.356,0.00781 -0.477,0.02734 -0.125,0.01563 -0.223,0.03907 -0.293,0.07422 -0.074,0.03516 -0.121,0.07422 -0.148,0.1211 -0.028,0.04687 -0.039,0.10156 -0.039,0.17187 v 1.51953 c -0.653,-0.72265 -1.297,-1.25 -1.934,-1.58203 -0.637,-0.33203 -1.285,-0.49609 -1.941,-0.49609 -0.762,0 -1.407,0.125 -1.93,0.3789 -0.523,0.25782 -0.945,0.60547 -1.266,1.04297 -0.324,0.4336 -0.554,0.94532 -0.695,1.52735 -0.141,0.58203 -0.211,1.28906 -0.211,2.12109 v 6.96095 c 0,0.0664 0.016,0.125 0.043,0.1719 0.031,0.0468 0.09,0.0898 0.172,0.1289 0.086,0.0351 0.195,0.0625 0.332,0.0742 0.137,0.0117 0.309,0.0195 0.512,0.0195 0.203,0 0.375,-0.0078 0.511,-0.0195 0.133,-0.0117 0.243,-0.0391 0.325,-0.0742 0.078,-0.0391 0.136,-0.0821 0.171,-0.1289 0.032,-0.0469 0.051,-0.1055 0.051,-0.1719 V 9.75391 c 0,-0.67188 0.047,-1.21094 0.145,-1.61719 0.097,-0.40234 0.246,-0.75 0.449,-1.03125 0.195,-0.28516 0.449,-0.50391 0.754,-0.66016 0.305,-0.16015 0.664,-0.23828 1.074,-0.23828 0.524,0 1.051,0.1875 1.57,0.5625 0.528,0.3711 1.079,0.91797 1.665,1.64063 v 8.01954 c 0,0.0664 0.015,0.125 0.046,0.1719 0.028,0.0468 0.086,0.0898 0.168,0.1289 0.086,0.0351 0.196,0.0625 0.328,0.0742 0.129,0.0117 0.305,0.0195 0.516,0.0195 0.203,0 0.375,-0.0078 0.512,-0.0195 0.133,-0.0117 0.242,-0.0391 0.316,-0.0742 0.078,-0.0391 0.133,-0.0821 0.172,-0.1289 0.039,-0.0469 0.059,-0.1055 0.059,-0.1719 v -11.47267 0" /><path
         id="path64"
         style="fill:#231f20;fill-opacity:1;fill-rule:nonzero;stroke:none"
         d="m 177.773,15.6758 c 0,-0.1875 -0.007,-0.3438 -0.015,-0.4688 -0.008,-0.1289 -0.024,-0.2265 -0.051,-0.3007 -0.027,-0.0704 -0.059,-0.129 -0.098,-0.168 -0.035,-0.0391 -0.089,-0.0547 -0.156,-0.0547 -0.07,0 -0.152,0.0156 -0.25,0.0547 -0.098,0.039 -0.207,0.0781 -0.332,0.1172 -0.121,0.039 -0.258,0.0742 -0.414,0.1054 -0.152,0.0391 -0.32,0.0508 -0.496,0.0508 -0.215,0 -0.422,-0.039 -0.625,-0.125 -0.203,-0.0859 -0.418,-0.2265 -0.645,-0.4219 -0.226,-0.1953 -0.461,-0.4531 -0.707,-0.7734 -0.246,-0.3281 -0.515,-0.7226 -0.816,-1.1875 V 4.95703 c 0,-0.07031 -0.016,-0.125 -0.051,-0.17187 -0.031,-0.04688 -0.09,-0.08594 -0.164,-0.1211 C 172.875,4.62891 172.77,4.60547 172.637,4.58984 172.5,4.57031 172.324,4.5625 172.113,4.5625 c -0.207,0 -0.375,0.00781 -0.511,0.02734 -0.137,0.01563 -0.243,0.03907 -0.325,0.07422 -0.082,0.03516 -0.136,0.07422 -0.164,0.1211 -0.035,0.04687 -0.047,0.10156 -0.047,0.17187 V 16.4297 c 0,0.0664 0.012,0.125 0.039,0.1719 0.028,0.0468 0.075,0.0898 0.153,0.1289 0.074,0.0351 0.172,0.0625 0.293,0.0742 0.121,0.0117 0.277,0.0195 0.472,0.0195 0.188,0 0.34,-0.0078 0.465,-0.0195 0.121,-0.0117 0.219,-0.0391 0.285,-0.0742 0.071,-0.0391 0.118,-0.0821 0.149,-0.1289 0.027,-0.0469 0.047,-0.1055 0.047,-0.1719 v -1.6719 c 0.312,0.461 0.605,0.832 0.883,1.1211 0.273,0.293 0.535,0.5195 0.781,0.6836 0.25,0.168 0.492,0.2773 0.734,0.3438 0.242,0.0625 0.488,0.0976 0.735,0.0976 0.109,0 0.234,-0.0078 0.375,-0.0195 0.14,-0.0156 0.285,-0.0391 0.441,-0.0703 0.152,-0.0352 0.289,-0.0743 0.41,-0.1172 0.125,-0.0391 0.215,-0.0821 0.262,-0.125 0.051,-0.043 0.086,-0.0821 0.105,-0.1211 0.016,-0.0391 0.032,-0.086 0.043,-0.1445 0.016,-0.0625 0.02,-0.1524 0.028,-0.2618 0,-0.1172 0.007,-0.2734 0.007,-0.4687 v 0" /><path
         id="path66"
         style="fill:#231f20;fill-opacity:1;fill-rule:nonzero;stroke:none"
         d="m 190.52,10.8203 c 0,-0.93358 -0.122,-1.79296 -0.368,-2.57811 -0.246,-0.78906 -0.617,-1.46485 -1.101,-2.03516 -0.492,-0.57031 -1.102,-1.01172 -1.836,-1.33203 -0.738,-0.31641 -1.586,-0.47656 -2.555,-0.47656 -0.945,0 -1.765,0.13672 -2.469,0.41797 -0.703,0.28125 -1.285,0.6914 -1.75,1.22656 -0.468,0.53125 -0.816,1.18359 -1.046,1.94922 -0.231,0.76172 -0.344,1.6289 -0.344,2.59761 0,0.9375 0.121,1.7969 0.363,2.5821 0.238,0.7851 0.606,1.4648 1.098,2.0351 0.484,0.5664 1.093,1.0078 1.824,1.3243 0.734,0.3164 1.59,0.4726 2.566,0.4726 0.942,0 1.762,-0.1406 2.465,-0.4219 0.699,-0.2812 1.285,-0.6875 1.754,-1.2226 0.469,-0.5352 0.813,-1.1875 1.051,-1.9492 0.23,-0.7657 0.348,-1.6289 0.348,-2.5899 z m -2.176,-0.1406 c 0,0.6211 -0.059,1.207 -0.176,1.7617 -0.117,0.5508 -0.305,1.0352 -0.57,1.4531 -0.27,0.4141 -0.625,0.7461 -1.082,0.9844 -0.457,0.2422 -1.024,0.3633 -1.7,0.3633 -0.625,0 -1.164,-0.1094 -1.613,-0.3281 -0.449,-0.2227 -0.82,-0.5352 -1.113,-0.9375 -0.289,-0.4024 -0.508,-0.8828 -0.649,-1.4336 -0.14,-0.5547 -0.211,-1.1563 -0.211,-1.8125 0,-0.625 0.059,-1.21878 0.172,-1.76956 0.118,-0.55469 0.309,-1.03516 0.582,-1.44922 0.266,-0.41016 0.629,-0.73828 1.082,-0.98047 0.457,-0.24219 1.024,-0.36328 1.7,-0.36328 0.617,0 1.152,0.11328 1.605,0.33203 0.457,0.21875 0.828,0.53125 1.121,0.92969 0.293,0.40234 0.508,0.8789 0.645,1.42969 0.136,0.55078 0.207,1.16012 0.207,1.82032 v 0" /><path
         id="path68"
         style="fill:#231f20;fill-opacity:1;fill-rule:nonzero;stroke:none"
         d="m 204.172,10.8711 c 0,-1.00001 -0.109,-1.90235 -0.324,-2.70313 -0.215,-0.79688 -0.535,-1.47656 -0.957,-2.03125 -0.422,-0.55859 -0.942,-0.98828 -1.563,-1.28516 -0.621,-0.30078 -1.328,-0.45312 -2.129,-0.45312 -0.34,0 -0.652,0.03515 -0.941,0.10156 -0.289,0.07031 -0.57,0.17578 -0.848,0.31641 -0.277,0.14453 -0.551,0.32812 -0.824,0.54687 -0.27,0.22266 -0.559,0.48438 -0.863,0.78125 V 0.410156 c 0,-0.070312 -0.02,-0.128906 -0.055,-0.179687 -0.031,-0.050781 -0.086,-0.09375 -0.16,-0.125 C 195.43,0.0703125 195.324,0.0429688 195.188,0.0273438 195.051,0.0078125 194.875,0 194.664,0 c -0.207,0 -0.375,0.0078125 -0.512,0.0273438 -0.136,0.015625 -0.242,0.0429687 -0.324,0.0781252 -0.082,0.03125 -0.137,0.074219 -0.164,0.125 -0.031,0.050781 -0.047,0.109375 -0.047,0.179687 V 16.4297 c 0,0.0742 0.016,0.1367 0.039,0.1836 0.028,0.0469 0.078,0.0859 0.153,0.1211 0.078,0.0351 0.175,0.0586 0.293,0.0703 0.121,0.0117 0.265,0.0195 0.433,0.0195 0.18,0 0.328,-0.0078 0.438,-0.0195 0.117,-0.0117 0.215,-0.0352 0.289,-0.0703 0.078,-0.0352 0.129,-0.0742 0.16,-0.1211 0.027,-0.0469 0.047,-0.1094 0.047,-0.1836 v -1.543 c 0.344,0.3555 0.683,0.6641 1.004,0.9297 0.324,0.2656 0.648,0.4844 0.972,0.6563 0.328,0.1757 0.664,0.3086 1.012,0.3945 0.34,0.0898 0.703,0.1367 1.086,0.1367 0.832,0 1.543,-0.1641 2.129,-0.4883 0.586,-0.3203 1.066,-0.7617 1.433,-1.3203 0.372,-0.5625 0.641,-1.2148 0.813,-1.9609 0.168,-0.7422 0.254,-1.5274 0.254,-2.3633 z m -2.18,-0.2422 c 0,0.5859 -0.047,1.1563 -0.137,1.7031 -0.089,0.5469 -0.242,1.0313 -0.46,1.4571 -0.219,0.4257 -0.512,0.7695 -0.879,1.0195 -0.368,0.2578 -0.825,0.3867 -1.371,0.3867 -0.274,0 -0.543,-0.043 -0.805,-0.125 -0.27,-0.0781 -0.535,-0.207 -0.809,-0.3789 -0.277,-0.1758 -0.562,-0.4062 -0.859,-0.6875 -0.301,-0.2891 -0.617,-0.6406 -0.949,-1.0547 V 8.38672 c 0.578,-0.70313 1.132,-1.24609 1.652,-1.61719 0.52,-0.375 1.066,-0.5625 1.641,-0.5625 0.531,0 0.988,0.125 1.367,0.38281 0.379,0.25391 0.687,0.59766 0.926,1.01954 0.234,0.42578 0.406,0.89843 0.515,1.42578 0.114,0.52734 0.168,1.05864 0.168,1.59374 v 0" /><path
         id="path70"
         style="fill:#231f20;fill-opacity:1;fill-rule:nonzero;stroke:none"
         d="m 217.121,11.1914 c 0,-0.332 -0.086,-0.5664 -0.25,-0.707 -0.168,-0.1406 -0.355,-0.211 -0.57,-0.211 h -7.555 c 0,-0.63668 0.063,-1.2109 0.192,-1.71871 0.128,-0.51172 0.343,-0.94922 0.64,-1.31641 0.301,-0.36328 0.688,-0.64453 1.164,-0.83984 0.481,-0.19531 1.067,-0.29297 1.758,-0.29297 0.547,0 1.031,0.04687 1.461,0.13281 0.426,0.08985 0.797,0.1875 1.105,0.30078 0.313,0.10938 0.571,0.21094 0.77,0.30078 0.199,0.08594 0.352,0.13282 0.457,0.13282 0.059,0 0.109,-0.01563 0.156,-0.04688 0.047,-0.02734 0.086,-0.07031 0.114,-0.13281 0.023,-0.05859 0.042,-0.14063 0.054,-0.25 0.012,-0.10547 0.02,-0.23438 0.02,-0.38672 0,-0.10937 -0.004,-0.20703 -0.012,-0.28516 -0.012,-0.08203 -0.02,-0.15625 -0.035,-0.21875 -0.012,-0.0625 -0.035,-0.12109 -0.063,-0.17187 C 216.496,5.42969 216.457,5.38281 216.41,5.33594 216.367,5.28516 216.23,5.21094 216,5.10547 215.77,5 215.473,4.89453 215.109,4.79297 214.742,4.69141 214.316,4.60156 213.84,4.51953 213.359,4.4375 212.848,4.39844 212.305,4.39844 c -0.946,0 -1.774,0.13281 -2.481,0.39453 -0.711,0.26172 -1.304,0.65625 -1.793,1.17187 -0.48,0.51954 -0.847,1.17188 -1.093,1.95313 -0.247,0.78125 -0.372,1.6875 -0.372,2.72653 0,0.9844 0.129,1.8672 0.383,2.6563 0.258,0.7851 0.621,1.4531 1.102,2 0.48,0.5469 1.062,0.9687 1.742,1.2617 0.68,0.293 1.437,0.4414 2.281,0.4414 0.899,0 1.668,-0.1445 2.301,-0.4375 0.629,-0.2851 1.152,-0.6758 1.563,-1.1641 0.406,-0.4882 0.703,-1.0625 0.898,-1.7187 0.187,-0.6602 0.285,-1.3633 0.285,-2.1094 v -0.3828 z m -2.117,0.625 c 0.027,1.1055 -0.219,1.9727 -0.738,2.5977 -0.516,0.6289 -1.282,0.9453 -2.301,0.9453 -0.52,0 -0.977,-0.0977 -1.371,-0.293 -0.395,-0.1953 -0.723,-0.457 -0.989,-0.7773 -0.265,-0.3243 -0.468,-0.6993 -0.617,-1.1289 -0.14,-0.4297 -0.226,-0.875 -0.242,-1.3438 h 6.258 v 0" /><path
         id="path72"
         style="fill:#231f20;fill-opacity:1;fill-rule:nonzero;stroke:none"
         d="m 230.988,10.8203 c 0,-0.93358 -0.125,-1.79296 -0.371,-2.57811 -0.246,-0.78906 -0.613,-1.46485 -1.101,-2.03516 -0.489,-0.57031 -1.102,-1.01172 -1.836,-1.33203 -0.735,-0.31641 -1.586,-0.47656 -2.559,-0.47656 -0.941,0 -1.762,0.13672 -2.461,0.41797 -0.703,0.28125 -1.289,0.6914 -1.754,1.22656 -0.468,0.53125 -0.816,1.18359 -1.043,1.94922 -0.23,0.76172 -0.347,1.6289 -0.347,2.59761 0,0.9375 0.121,1.7969 0.367,2.5821 0.238,0.7851 0.605,1.4648 1.094,2.0351 0.488,0.5664 1.097,1.0078 1.828,1.3243 0.73,0.3164 1.586,0.4726 2.562,0.4726 0.942,0 1.766,-0.1406 2.465,-0.4219 0.703,-0.2812 1.285,-0.6875 1.754,-1.2226 0.465,-0.5352 0.816,-1.1875 1.051,-1.9492 0.234,-0.7657 0.351,-1.6289 0.351,-2.5899 z m -2.179,-0.1406 c 0,0.6211 -0.059,1.207 -0.172,1.7617 -0.117,0.5508 -0.309,1.0352 -0.574,1.4531 -0.266,0.4141 -0.629,0.7461 -1.079,0.9844 -0.457,0.2422 -1.023,0.3633 -1.699,0.3633 -0.625,0 -1.164,-0.1094 -1.613,-0.3281 -0.449,-0.2227 -0.82,-0.5352 -1.113,-0.9375 -0.293,-0.4024 -0.508,-0.8828 -0.649,-1.4336 -0.144,-0.5547 -0.215,-1.1563 -0.215,-1.8125 0,-0.625 0.059,-1.21878 0.172,-1.76956 0.117,-0.55469 0.313,-1.03516 0.578,-1.44922 0.274,-0.41016 0.633,-0.73828 1.09,-0.98047 0.453,-0.24219 1.02,-0.36328 1.699,-0.36328 0.618,0 1.153,0.11328 1.606,0.33203 0.457,0.21875 0.828,0.53125 1.121,0.92969 0.289,0.40234 0.504,0.8789 0.641,1.42969 0.136,0.55078 0.207,1.16012 0.207,1.82032 v 0" /><path
         id="path74"
         style="fill:#040498;fill-opacity:1;fill-rule:nonzero;stroke:none"
         d="M 0,425.195 H 493.512 V 96.1836 H 0 v 329.0114 0" /><path
         id="path76"
         style="fill:#f7e738;fill-opacity:1;fill-rule:nonzero;stroke:none"
         d="m 236.242,353.512 10.41,7.597 10.418,-7.597 -3.965,12.289 10.579,7.601 h -13.039 l -3.993,12.438 -3.992,-12.453 -13.027,0.015 10.566,-7.601 -3.957,-12.289 v 0" /><path
         id="path78"
         style="fill:#f7e738;fill-opacity:1;fill-rule:nonzero;stroke:none"
         d="m 182.348,339.031 10.41,7.602 10.41,-7.602 -3.957,12.289 10.574,7.602 h -13.043 l -3.984,12.453 -3.988,-12.469 -13.036,0.016 10.567,-7.602 -3.953,-12.289 v 0" /><path
         id="path80"
         style="fill:#f7e738;fill-opacity:1;fill-rule:nonzero;stroke:none"
         d="m 153.332,331.855 -3.992,-12.468 -13.031,0.015 10.57,-7.601 -3.961,-12.289 10.414,7.597 10.41,-7.597 -3.961,12.289 10.567,7.601 H 157.32 l -3.988,12.453 v 0" /><path
         id="path82"
         style="fill:#f7e738;fill-opacity:1;fill-rule:nonzero;stroke:none"
         d="m 138.867,253.289 10.403,-7.598 -3.954,12.286 10.567,7.601 h -13.028 l -3.988,12.453 -3.992,-12.48 -13.035,0.027 10.574,-7.601 -3.961,-12.286 10.414,7.598 v 0" /><path
         id="path84"
         style="fill:#f7e738;fill-opacity:1;fill-rule:nonzero;stroke:none"
         d="m 157.32,211.594 -3.988,12.449 -3.992,-12.465 -13.031,0.016 10.57,-7.602 -3.961,-12.289 10.414,7.613 10.41,-7.613 -3.961,12.289 10.567,7.602 H 157.32 v 0" /><path
         id="path86"
         style="fill:#f7e738;fill-opacity:1;fill-rule:nonzero;stroke:none"
         d="m 196.828,172.086 -3.992,12.437 -3.981,-12.453 -13.039,0.016 10.571,-7.602 -3.953,-12.289 10.41,7.602 10.402,-7.602 -3.949,12.289 10.57,7.602 h -13.039 v 0" /><path
         id="path88"
         style="fill:#f7e738;fill-opacity:1;fill-rule:nonzero;stroke:none"
         d="m 250.648,157.77 -3.988,12.453 -3.984,-12.469 -13.035,0.016 10.57,-7.598 -3.957,-12.293 10.414,7.601 10.406,-7.601 -3.965,12.293 10.582,7.598 h -13.043 v 0" /><path
         id="path90"
         style="fill:#f7e738;fill-opacity:1;fill-rule:nonzero;stroke:none"
         d="m 304.473,172.086 -3.985,12.437 -3.996,-12.453 -13.023,0.016 10.566,-7.602 -3.957,-12.289 10.41,7.602 10.414,-7.602 -3.968,12.289 10.578,7.602 h -13.039 v 0" /><path
         id="path92"
         style="fill:#f7e738;fill-opacity:1;fill-rule:nonzero;stroke:none"
         d="m 343.996,211.594 -4,12.449 -3.996,-12.465 -13.023,0.016 10.578,-7.602 -3.973,-12.289 10.414,7.613 10.414,-7.613 -3.969,12.289 10.575,7.602 h -13.02 v 0" /><path
         id="path94"
         style="fill:#f7e738;fill-opacity:1;fill-rule:nonzero;stroke:none"
         d="m 371.332,265.73 h -13.035 l -3.996,12.45 -3.985,-12.465 -13.039,0.015 10.578,-7.601 -3.957,-12.289 10.403,7.609 10.41,-7.609 -3.953,12.289 10.574,7.601 v 0" /><path
         id="path96"
         style="fill:#f7e738;fill-opacity:1;fill-rule:nonzero;stroke:none"
         d="m 329.582,299.676 10.414,7.597 10.414,-7.597 -3.965,12.289 10.571,7.586 h -13.02 l -4,12.453 -3.996,-12.469 -13.023,0.016 10.578,-7.586 -3.973,-12.289 v 0" /><path
         id="path98"
         style="fill:#f7e738;fill-opacity:1;fill-rule:nonzero;stroke:none"
         d="m 300.641,371.359 -3.985,-12.464 -13.039,0.027 10.567,-7.613 -3.957,-12.289 10.425,7.613 10.403,-7.613 -3.957,12.289 10.578,7.613 h -13.055 l -3.98,12.437 v 0" /></g></g></svg>